# xmcd CD database file
#
# Track frame offsets:
#	150
#	21840
#	86802
#	112685
#	139535
#
# Disc length: 2297 seconds
#
# Revision: 0
# Processed by: cddbd v1.5PL3 Copyright (c) Steve Scherf et al.
# Submitted via: CDex 1.51
#
DISCID=3308f705
DTITLE=George Otsuka Trio - Page 2
DYEAR=1968
DGENRE=Jazz
TTITLE0=Hot Cha
TTITLE1=On Green Dolphin Street
TTITLE2=I Fall in Love Too Easily
TTITLE3=Blues by Five
TTITLE4=Lament
EXTD=YEAR: 1968
EXTT0=
EXTT1=
EXTT2=
EXTT3=
EXTT4=
PLAYORDER=
